<svg xmlns="http://www.w3.org/2000/svg" version="1.1" xmlns:xlink="http://www.w3.org/1999/xlink" width="1000" height="1000"><metadata><rdf:RDF xmlns:rdf="http://www.w3.org/1999/02/22-rdf-syntax-ns#" xmlns:dc="http://purl.org/dc/elements/1.1/"><rdf:Description><dc:creator>RealFaviconGenerator</dc:creator><dc:source>https://realfavicongenerator.net</dc:source></rdf:Description></rdf:RDF></metadata><g clip-path="url(#SvgjsClipPath1041)"><rect width="1000" height="1000" fill="#ffffff"></rect><g transform="matrix(2.8901734104046244,0,0,2.8901734104046244,0,0)"><svg xmlns="http://www.w3.org/2000/svg" width="346" height="346" viewBox="0 0 346 346" fill="none"><rect width="346" height="346" fill="white" style="fill:white;fill-opacity:1;"></rect><path d="M234.929 226L266.289 175.46L236.469 128.28H261.249L280.289 161.32H280.709L300.029 128.28H322.989L292.889 175.88L324.669 226H300.029L278.889 190.02H278.469L257.889 226H234.929Z" fill="#111111" style="fill:#111111;fill:color(display-p3 0.0667 0.0667 0.0667);fill-opacity:1;"></path><path d="M255.73 226H189.23V128.28H255.73V147.18H210.51V167.2H249.29V185.96H210.51V207.1H255.73V226Z" fill="#111111" style="fill:#111111;fill:color(display-p3 0.0667 0.0667 0.0667);fill-opacity:1;"></path><path d="M123.618 226H99.2577L77.1377 128.28H98.1377L107.378 175.18L112.558 202.34H112.978L119.138 175.18L129.918 128.28H153.158L164.078 175.18L170.098 202.34H170.518L175.698 175.18L185.078 128.28H205.238L182.558 226H158.338L146.018 173.08L141.258 151.66H140.838L135.938 173.08L123.618 226Z" fill="#111111" style="fill:#111111;fill:color(display-p3 0.0667 0.0667 0.0667);fill-opacity:1;"></path><path d="M61.5321 227.68C53.0388 227.68 45.7588 226.187 39.6921 223.2C33.7188 220.213 28.6321 216.433 24.4321 211.86L38.4321 197.72C41.6988 201.453 45.3855 204.253 49.4921 206.12C53.6921 207.987 58.1721 208.92 62.9321 208.92C68.1588 208.92 72.0321 207.847 74.5521 205.7C77.0721 203.553 78.3321 200.707 78.3321 197.16C78.3321 195.387 78.0055 193.8 77.3521 192.4C76.7921 190.907 75.6721 189.693 73.9921 188.76C72.4055 187.733 70.0721 187.033 66.9921 186.66L57.3321 185.4C50.5188 184.467 44.8721 182.787 40.3921 180.36C36.0055 177.84 32.7388 174.573 30.5921 170.56C28.4455 166.453 27.3721 161.693 27.3721 156.28C27.3721 150.4 28.8188 145.267 31.7121 140.88C34.6988 136.4 38.8988 132.9 44.3121 130.38C49.8188 127.86 56.3988 126.6 64.0521 126.6C71.4255 126.6 77.9121 127.813 83.5121 130.24C89.1121 132.573 93.9188 135.933 97.9321 140.32L83.7921 154.6C81.4588 151.893 78.6121 149.7 75.2521 148.02C71.9855 146.247 67.8321 145.36 62.7921 145.36C58.0321 145.36 54.4855 146.2 52.1521 147.88C49.8188 149.56 48.6521 151.893 48.6521 154.88C48.6521 157.12 49.0255 158.94 49.7721 160.34C50.6121 161.74 51.8721 162.813 53.5521 163.56C55.3255 164.307 57.5655 164.913 60.2721 165.38L69.9321 166.92C76.6521 167.947 82.2055 169.673 86.5921 172.1C90.9788 174.527 94.2455 177.7 96.3921 181.62C98.5388 185.54 99.6121 190.3 99.6121 195.9C99.6121 202.153 98.1188 207.66 95.1321 212.42C92.2388 217.18 87.9455 220.913 82.2521 223.62C76.5588 226.327 69.6521 227.68 61.5321 227.68Z" fill="#111111" style="fill:#111111;fill:color(display-p3 0.0667 0.0667 0.0667);fill-opacity:1;"></path></svg></g></g><defs><clipPath id="SvgjsClipPath1041"><rect width="1000" height="1000" x="0" y="0" rx="500" ry="500"></rect></clipPath></defs></svg>