<svg xmlns="http://www.w3.org/2000/svg" version="1.1" xmlns:xlink="http://www.w3.org/1999/xlink" width="1000" height="1000"><metadata><rdf:RDF xmlns:rdf="http://www.w3.org/1999/02/22-rdf-syntax-ns#" xmlns:dc="http://purl.org/dc/elements/1.1/"><rdf:Description><dc:creator>RealFaviconGenerator</dc:creator><dc:source>https://realfavicongenerator.net</dc:source></rdf:Description></rdf:RDF></metadata><g clip-path="url(#SvgjsClipPath1045)"><rect width="1000" height="1000" fill="111111"></rect><g transform="matrix(2.8901734104046244,0,0,2.8901734104046244,0,0)"><svg xmlns="http://www.w3.org/2000/svg" width="346" height="346" viewBox="0 0 346 346" fill="none"><g clip-path="url(#clip0_9_10)">
<rect width="346" height="346" fill="#111111" style="fill:#111111;fill:color(display-p3 0.0667 0.0667 0.0667);fill-opacity:1;"></rect>
<path d="M82.9041 203.96C78.0507 203.96 73.8907 203.107 70.4241 201.4C67.0107 199.693 64.1041 197.533 61.7041 194.92L69.7041 186.84C71.5707 188.973 73.6774 190.573 76.0241 191.64C78.4241 192.707 80.9841 193.24 83.7041 193.24C86.6907 193.24 88.9041 192.627 90.3441 191.4C91.7841 190.173 92.5041 188.547 92.5041 186.52C92.5041 185.507 92.3174 184.6 91.9441 183.8C91.6241 182.947 90.9841 182.253 90.0241 181.72C89.1174 181.133 87.7841 180.733 86.0241 180.52L80.5041 179.8C76.6107 179.267 73.3841 178.307 70.8241 176.92C68.3174 175.48 66.4507 173.613 65.2241 171.32C63.9974 168.973 63.3841 166.253 63.3841 163.16C63.3841 159.8 64.2107 156.867 65.8641 154.36C67.5707 151.8 69.9707 149.8 73.0641 148.36C76.2107 146.92 79.9707 146.2 84.3441 146.2C88.5574 146.2 92.2641 146.893 95.4641 148.28C98.6641 149.613 101.411 151.533 103.704 154.04L95.6241 162.2C94.2907 160.653 92.6641 159.4 90.7441 158.44C88.8774 157.427 86.5041 156.92 83.6241 156.92C80.9041 156.92 78.8774 157.4 77.5441 158.36C76.2107 159.32 75.5441 160.653 75.5441 162.36C75.5441 163.64 75.7574 164.68 76.1841 165.48C76.6641 166.28 77.3841 166.893 78.3441 167.32C79.3574 167.747 80.6374 168.093 82.1841 168.36L87.7041 169.24C91.5441 169.827 94.7174 170.813 97.2241 172.2C99.7307 173.587 101.597 175.4 102.824 177.64C104.051 179.88 104.664 182.6 104.664 185.8C104.664 189.373 103.811 192.52 102.104 195.24C100.451 197.96 97.9974 200.093 94.7441 201.64C91.4907 203.187 87.5441 203.96 82.9041 203.96ZM135.982 203H122.062L109.422 147.16H121.422L126.702 173.96L129.662 189.48H129.902L133.422 173.96L139.582 147.16H152.862L159.102 173.96L162.542 189.48H162.782L165.742 173.96L171.102 147.16H182.622L169.662 203H155.822L148.782 172.76L146.062 160.52H145.822L143.022 172.76L135.982 203ZM229.074 203H191.074V147.16H229.074V157.96H203.234V169.4H225.394V180.12H203.234V192.2H229.074V203ZM234.788 203L252.708 174.12L235.668 147.16H249.828L260.708 166.04H260.948L271.988 147.16H285.108L267.908 174.36L286.068 203H271.988L259.908 182.44H259.668L247.908 203H234.788Z" fill="white" style="fill:white;fill-opacity:1;"></path>
</g><defs>
<clipPath id="clip0_9_10">
<rect width="346" height="346" fill="white" style="fill:white;fill-opacity:1;"></rect>
</clipPath>
<clipPath id="SvgjsClipPath1045"><rect width="1000" height="1000" x="0" y="0" rx="500" ry="500"></rect></clipPath></defs></svg></g></g></svg>